Coordinates
version=1
nRows=19
nColumns=33
inDegrees=yes

Units are S.I. units (second, meters, Newtons, ...)
Angles are in degrees.

endheader
time	ground_thorax_rot_x	ground_thorax_rot_y	ground_thorax_rot_z	ground_thorax_tx	ground_thorax_ty	ground_thorax_tz	clav_prot_r	clav_elev_r	scapula_abduction_r	scapula_elevation_r	scapula_upward_rot_r	scapula_winging_r	shoulder_elv_r	plane_of_elev_r	axial_rot_r	elbow_flexion_r	pro_sup_r	wrist_flex_r	wrist_dev_r	clav_prot_l	clav_elev_l	scapula_abduction_l	scapula_elevation_l	scapula_upward_rot_l	scapula_winging_l	shoulder_elv_l	plane_of_elev_l	axial_rot_l	elbow_flexion_l	pro_sup_l	wrist_flex_l	wrist_dev_l
      4.89000000	     -4.72774663	      4.59498482	     14.13322195	     -0.12205638	      1.02406797	      0.00646274	      9.22424392	    -16.19904048	     15.01763820	     -7.54811675	     -2.56576520	      0.13292238	    -20.08179710	    -66.03469774	    110.49721755	    -42.33711247	   -159.66882493	     20.16897143	     -3.55995295	     17.09790332	     -6.09393866	    -24.98479924	    -15.30580611	    -34.56311406	      4.99621120	     57.23188663	    -16.51367501	     14.26229135	     27.67648888	     16.31708301	     13.87604720	    -21.89249605
      4.90000000	     -4.63653260	      4.52162650	     14.12862516	     -0.12193462	      1.02426618	      0.00657630	      9.00314673	    -16.01119810	     14.53320641	     -7.26266945	     -2.84329735	      0.22465195	    -20.98040428	    -66.40885351	    109.96485273	    -42.61665822	   -160.06614851	     20.92108083	     -4.11135878	     16.81906245	     -5.80565986	    -24.54633020	    -15.70671845	    -34.81603458	      4.73514677	     56.87543732	    -17.28162041	     14.21015950	     28.68209222	     16.15080821	     13.95896135	    -22.40794622
      4.91000000	     -4.55487261	      4.48329027	     14.09028038	     -0.12182446	      1.02451167	      0.00685812	      8.78522749	    -15.67294635	     14.04232148	     -6.81990268	     -3.15585759	      0.24281140	    -21.53615557	    -66.52345288	    109.62174413	    -42.95528686	   -160.23666126	     21.38885026	     -4.42230068	     16.57531050	     -5.54563914	    -24.17403694	    -16.10254100	    -35.11634313	      4.49790652	     56.59489289	    -17.93432779	     14.37682895	     29.54002683	     15.98554659	     13.95161053	    -22.73337153
      4.92000000	     -4.46754359	      4.43726942	     14.01993256	     -0.12169023	      1.02524133	      0.00696413	      8.62971052	    -15.89610253	     13.70419720	     -6.96506750	     -3.32381482	      0.49196453	    -23.58467401	    -67.13097009	    107.89267306	    -43.08628276	   -161.28673703	     23.67016327	     -6.31205860	     16.13259437	     -5.37445045	    -23.36451521	    -16.15552655	    -34.83042429	      4.12640974	     56.29773276	    -19.29192337	     13.48995800	     30.56107010	     15.37713382	     14.09148812	    -23.60588973
      4.93000000	     -4.38058503	      4.33743093	     13.93085867	     -0.12156822	      1.02529444	      0.00707559	      8.42907128	    -15.49310349	     13.33198218	     -6.54649900	     -3.43022506	      0.42906559	    -24.16583512	    -67.39725703	    107.80920816	    -43.53079880	   -161.31073028	     23.99418765	     -6.35865868	     15.90923399	     -4.97499267	    -23.03877616	    -16.72185536	    -35.21927735	      3.89926195	     55.95034697	    -19.85444878	     13.72708780	     31.75575810	     15.17718967	     14.02126788	    -23.90771674
      4.94000000	     -4.24354404	      4.24956028	     13.96430761	     -0.12154072	      1.02531516	      0.00720865	      8.27129081	    -15.11020396	     12.97299967	     -6.08939217	     -3.66766934	      0.37732681	    -24.84877622	    -67.77375643	    107.62158040	    -44.08944828	   -161.35089935	     24.52480017	     -6.60386437	     15.69160212	     -4.61675460	    -22.72626525	    -17.25858841	    -35.62336048	      3.67113749	     55.57496091	    -20.53769877	     13.67124060	     33.00058982	     14.96189782	     13.95393699	    -24.26857723
      4.95000000	     -4.07045038	      4.18019791	     13.96962499	     -0.12147410	      1.02603505	      0.00739814	      8.23792688	    -15.14009592	     12.87360968	     -6.07562985	     -3.76864947	      0.43269443	    -27.05342384	    -68.25889373	    105.72148438	    -44.35748431	   -161.95634019	     26.75965970	     -8.48286481	     15.21464584	     -4.53398370	    -21.85206768	    -17.25304061	    -35.37767527	      3.26878514	     55.32763204	    -22.02531557	     12.62280949	     34.12717422	     14.09610968	     13.51520795	    -24.84355395
      4.96000000	     -4.01258391	      4.05881484	     13.82684340	     -0.12134707	      1.02607794	      0.00746115	      8.06102454	    -14.73924235	     12.57798817	     -5.70062627	     -3.77523118	      0.35030220	    -27.70199659	    -68.53696322	    105.65848943	    -44.95465627	   -161.92457526	     27.10472235	     -8.52371333	     15.00014850	     -4.08652219	    -21.53463516	    -17.85955317	    -35.74840809	      3.03814368	     55.01845704	    -22.61258965	     12.79412340	     35.50810221	     13.85643321	     13.39132519	    -24.99999983
      4.97000000	     -3.81387708	      3.91796575	     13.69003334	     -0.12127076	      1.02662126	      0.00755012	      8.13370095	    -14.64655549	     12.83322656	     -5.74184740	     -3.46790579	      0.19911619	    -30.43282339	    -68.97826599	    103.42160449	    -45.36399568	   -162.32884373	     28.81902316	     -9.96969078	     14.43969839	     -3.95204111	    -20.51003519	    -17.92203468	    -35.52676849	      2.56200135	     54.88895027	    -24.02832601	     11.64201208	     36.87095259	     12.72913763	     12.36143321	    -24.99999983
      4.98000000	     -3.71069829	      3.83287087	     13.71246417	     -0.12113949	      1.02667057	      0.00773301	      7.96638902	    -14.16128073	     12.49629990	     -5.23443471	     -3.60072968	      0.10184653	    -31.01960666	    -69.22009396	    103.31660661	    -46.02950213	   -162.25572093	     29.11785826	     -9.99124159	     14.22739364	     -3.53539178	    -20.19630697	    -18.51572956	    -35.92929042	      2.32261049	     54.58300206	    -24.64768318	     11.76639668	     38.15248874	     12.54049714	     12.24259733	    -24.99999983
      4.99000000	     -3.57493794	      3.77349559	     13.73616152	     -0.12114845	      1.02664837	      0.00782878	      7.85329629	    -13.73324775	     12.21725734	     -4.74676751	     -3.80841501	      0.01468358	    -31.66111390	    -69.54594089	    103.12105393	    -46.79338949	   -162.20682091	     29.56049405	    -10.21759879	     14.04748817	     -3.16507842	    -19.93683756	    -19.05582530	    -36.30698051	      2.11165628	     54.30050201	    -25.33895249	     11.59315701	     39.52534375	     12.34854526	     12.04566511	    -24.99999983
      5.00000000	     -3.38403981	      3.67231805	     13.97447180	     -0.12138158	      1.02684370	      0.00780991	      7.83656212	    -13.46495700	     12.07019122	     -4.37642390	     -4.08489207	     -0.04249980	    -32.83668019	    -70.14102772	    102.52043304	    -47.39958363	   -162.18431591	     30.36730082	    -10.98117987	     13.82323859	     -2.90606182	    -19.58890555	    -19.46148420	    -36.61323642	      1.87066916	     54.02631444	    -26.36196638	     10.88618823	     40.85759287	     12.04001827	     11.46054780	    -24.99999983
      5.01000000	     -3.20014960	      3.55755824	     13.59454653	     -0.12102099	      1.02773302	      0.00804475	      7.84211371	    -13.53244876	     12.25880806	     -4.62130066	     -3.66173317	     -0.09635120	    -35.73045145	    -70.36029990	     99.87208898	    -47.88136749	   -162.05791673	     32.36237397	    -13.22852163	     13.16845356	     -2.86353620	    -18.32491378	    -19.29025918	    -36.06769507	      1.36133585	     54.06894647	    -27.80912838	      9.72754921	     41.99816404	     11.11297902	      9.21353284	    -24.99999983
      5.02000000	     -3.13920289	      3.47240576	     13.60215419	     -0.12094253	      1.02774672	      0.00808623	      7.72247606	    -13.08439384	     12.02593782	     -4.17748888	     -3.72631935	     -0.20733175	    -36.35182117	    -70.61818531	     99.78654413	    -48.54793063	   -161.87022065	     32.66539239	    -13.19206275	     12.99738372	     -2.44233435	    -18.06144239	    -19.85158154	    -36.38100955	      1.15040350	     53.82089990	    -28.40201650	      9.77071254	     43.19435473	     10.98240638	      9.06359197	    -24.99999983
      5.03000000	     -2.93781346	      3.39097940	     13.79387760	     -0.12110226	      1.02777436	      0.00807523	      7.70592587	    -12.71479389	     11.90424983	     -3.74094205	     -3.93842800	     -0.31468483	    -37.28687630	    -71.10789531	     99.32590934	    -49.14961238	   -161.50088108	     33.35989198	    -13.55222052	     12.81249843	     -2.11569741	    -17.76242219	    -20.30164780	    -36.64302654	      0.92935340	     53.52280346	    -29.17412051	      9.30322699	     44.33920457	     10.90486071	      8.60647234	    -24.99999983
      5.04000000	     -2.76526307	      3.25573037	     13.47488220	     -0.12086198	      1.02853466	      0.00826522	      7.82889065	    -12.74827874	     12.28561296	     -3.94639726	     -3.52817065	     -0.45868571	    -39.95436418	    -71.20484786	     96.71480960	    -49.44442774	   -159.89398401	     35.75738007	    -15.58210102	     12.25471196	     -2.04259021	    -16.65975777	    -20.15245691	    -36.09996789	      0.50928920	     53.54729040	    -30.47338437	      8.24125404	     45.34476652	     10.84676042	      6.20960115	    -24.99999983
      5.05000000	     -2.69963030	      3.18279026	     13.49433265	     -0.12081639	      1.02852137	      0.00833055	      7.73052391	    -12.33318179	     12.08789485	     -3.53752277	     -3.58350207	     -0.55949050	    -40.54041806	    -71.45025601	     96.68358836	    -50.07561661	   -159.64077033	     36.04544295	    -15.59832942	     12.12309339	     -1.66580485	    -16.44967621	    -20.65386774	    -36.37039694	      0.32575867	     53.32990979	    -31.02076157	      8.24269493	     46.42294378	     10.79371255	      6.06219798	    -24.99999983
      5.06000000	     -2.48706843	      3.10130193	     13.76047209	     -0.12094199	      1.02852274	      0.00831775	      7.73209620	    -11.97616062	     11.99110896	     -3.10970522	     -3.80407218	     -0.66075615	    -41.46935347	    -71.93049992	     96.19367885	    -50.56999141	   -158.93007954	     36.88113723	    -16.06709397	     11.96117200	     -1.37739086	    -16.18093924	    -21.04730747	    -36.58678086	      0.13083783	     53.05916756	    -31.76096745	      7.70919272	     47.40058157	     10.92356748	      5.52175239	    -24.99999983
      5.07000000	     -2.32182706	      3.05145427	     13.52390749	     -0.12064820	      1.02916943	      0.00856941	      7.80090804	    -11.93925922	     12.23274115	     -3.20543219	     -3.50002214	     -0.78370008	    -43.56386628	    -71.89690356	     93.88945779	    -50.77022352	   -156.32688005	     39.49411359	    -18.13014901	     11.51015615	     -1.32206745	    -15.27753908	    -20.91245651	    -36.12699813	     -0.20134657	     53.13782418	    -32.84400145	      6.78332635	     48.23210434	     11.63997417	      3.21140006	    -24.99999983
